<mxfile host="app.diagrams.net" modified="2023-09-15T13:34:35.787Z" agent="Mozilla/5.0 (Windows NT 10.0; Win64; x64) AppleWebKit/537.36 (KHTML, like Gecko) Chrome/116.0.0.0 Safari/537.36" etag="Yu6jEPIZrJ2atIoeOqWX" version="21.7.4" type="device">
  <diagram id="R2lEEEUBdFMjLlhIrx00" name="Page-1">
    <mxGraphModel dx="741" dy="662" grid="1" gridSize="10" guides="1" tooltips="1" connect="1" arrows="1" fold="1" page="1" pageScale="1" pageWidth="850" pageHeight="1100" background="none" math="0" shadow="0" extFonts="Permanent Marker^https://fonts.googleapis.com/css?family=Permanent+Marker">
      <root>
        <mxCell id="0" />
        <mxCell id="1" parent="0" />
        <mxCell id="Dd1cYbYYxi9G3Xba6974-35" value="&lt;div style=&quot;border-color: var(--border-color);&quot;&gt;Requirements:&lt;/div&gt;&lt;div style=&quot;border-color: var(--border-color);&quot;&gt;Analytical exports is the main revenue generation.&lt;/div&gt;&lt;div style=&quot;border-color: var(--border-color);&quot;&gt;&lt;ul&gt;&lt;li style=&quot;&quot;&gt;Scalability -&amp;gt; user growth -&amp;gt; more processing, more metrics&lt;br&gt;&lt;/li&gt;&lt;li style=&quot;&quot;&gt;Elasticity -&amp;gt; vary processing based on active bookings today&lt;/li&gt;&lt;li style=&quot;&quot;&gt;Data integrity -&amp;gt; data is delivered to the destination (user/3rd party)&lt;/li&gt;&lt;li style=&quot;border-color: var(--border-color);&quot;&gt;Extensibility -&amp;gt; easily add a new metric for exporting.&lt;/li&gt;&lt;li style=&quot;border-color: var(--border-color);&quot;&gt;Performance (? depending on exporter type?) -&amp;gt; metrics are exported sufficiently fast&lt;/li&gt;&lt;/ul&gt;&lt;/div&gt;" style="rounded=0;whiteSpace=wrap;html=1;align=center;verticalAlign=top;" vertex="1" parent="1">
          <mxGeometry x="1020" y="283.75" width="230" height="230" as="geometry" />
        </mxCell>
        <mxCell id="Dd1cYbYYxi9G3Xba6974-51" value="" style="edgeStyle=orthogonalEdgeStyle;rounded=0;orthogonalLoop=1;jettySize=auto;html=1;" edge="1" parent="1" source="Dd1cYbYYxi9G3Xba6974-52" target="Dd1cYbYYxi9G3Xba6974-58">
          <mxGeometry relative="1" as="geometry" />
        </mxCell>
        <mxCell id="Dd1cYbYYxi9G3Xba6974-52" value="Booking storage" style="shape=cylinder3;whiteSpace=wrap;html=1;boundedLbl=1;backgroundOutline=1;size=15;" vertex="1" parent="1">
          <mxGeometry x="1170" y="170" width="60" height="80" as="geometry" />
        </mxCell>
        <mxCell id="Dd1cYbYYxi9G3Xba6974-73" style="edgeStyle=orthogonalEdgeStyle;rounded=0;orthogonalLoop=1;jettySize=auto;html=1;exitX=1;exitY=0.5;exitDx=0;exitDy=0;exitPerimeter=0;entryX=0;entryY=0.5;entryDx=0;entryDy=0;" edge="1" parent="1" source="Dd1cYbYYxi9G3Xba6974-55" target="Dd1cYbYYxi9G3Xba6974-62">
          <mxGeometry relative="1" as="geometry" />
        </mxCell>
        <mxCell id="Dd1cYbYYxi9G3Xba6974-77" value="" style="edgeStyle=orthogonalEdgeStyle;rounded=0;orthogonalLoop=1;jettySize=auto;html=1;" edge="1" parent="1" source="Dd1cYbYYxi9G3Xba6974-55" target="Dd1cYbYYxi9G3Xba6974-66">
          <mxGeometry relative="1" as="geometry" />
        </mxCell>
        <mxCell id="Dd1cYbYYxi9G3Xba6974-55" value="Analytics storage" style="shape=cylinder3;whiteSpace=wrap;html=1;boundedLbl=1;backgroundOutline=1;size=15;" vertex="1" parent="1">
          <mxGeometry x="1390" y="170" width="60" height="80" as="geometry" />
        </mxCell>
        <mxCell id="Dd1cYbYYxi9G3Xba6974-56" value="&lt;font color=&quot;#ff3333&quot;&gt;&lt;br&gt;&lt;br&gt;User&lt;/font&gt;" style="shape=actor;whiteSpace=wrap;html=1;" vertex="1" parent="1">
          <mxGeometry x="1497.5" y="10" width="40" height="60" as="geometry" />
        </mxCell>
        <mxCell id="Dd1cYbYYxi9G3Xba6974-57" value="" style="edgeStyle=orthogonalEdgeStyle;rounded=0;orthogonalLoop=1;jettySize=auto;html=1;exitX=1;exitY=0.5;exitDx=0;exitDy=0;" edge="1" parent="1" source="Dd1cYbYYxi9G3Xba6974-59" target="Dd1cYbYYxi9G3Xba6974-52">
          <mxGeometry relative="1" as="geometry">
            <mxPoint x="1142.72" y="209.39999999999998" as="sourcePoint" />
          </mxGeometry>
        </mxCell>
        <mxCell id="Dd1cYbYYxi9G3Xba6974-76" style="edgeStyle=orthogonalEdgeStyle;rounded=0;orthogonalLoop=1;jettySize=auto;html=1;exitX=1;exitY=0.5;exitDx=0;exitDy=0;entryX=0;entryY=0.5;entryDx=0;entryDy=0;entryPerimeter=0;" edge="1" parent="1" source="Dd1cYbYYxi9G3Xba6974-58" target="Dd1cYbYYxi9G3Xba6974-55">
          <mxGeometry relative="1" as="geometry" />
        </mxCell>
        <mxCell id="Dd1cYbYYxi9G3Xba6974-58" value="Data exporter" style="rounded=1;whiteSpace=wrap;html=1;" vertex="1" parent="1">
          <mxGeometry x="1270" y="192.5" width="90" height="35" as="geometry" />
        </mxCell>
        <mxCell id="Dd1cYbYYxi9G3Xba6974-59" value="Data extraction: Abstraction on the rest of the system" style="shape=process;whiteSpace=wrap;html=1;backgroundOutline=1;" vertex="1" parent="1">
          <mxGeometry x="1020" y="180" width="120" height="60" as="geometry" />
        </mxCell>
        <mxCell id="Dd1cYbYYxi9G3Xba6974-60" value="&lt;div style=&quot;text-align: center;&quot;&gt;&lt;span style=&quot;background-color: initial; text-align: left;&quot;&gt;Supporting flows:&lt;/span&gt;&lt;/div&gt;&lt;ol&gt;&lt;li&gt;&lt;span style=&quot;background-color: initial; text-align: left;&quot;&gt;Yearly reports to individual users&lt;/span&gt;&lt;/li&gt;&lt;li&gt;Analytical exports to 3rd parties&lt;/li&gt;&lt;/ol&gt;&lt;div style=&quot;text-align: center;&quot;&gt;&lt;br&gt;&lt;/div&gt;" style="rounded=0;whiteSpace=wrap;html=1;align=left;verticalAlign=top;" vertex="1" parent="1">
          <mxGeometry x="1020" y="55" width="220" height="70" as="geometry" />
        </mxCell>
        <mxCell id="Dd1cYbYYxi9G3Xba6974-74" style="edgeStyle=orthogonalEdgeStyle;rounded=0;orthogonalLoop=1;jettySize=auto;html=1;exitX=0.5;exitY=1;exitDx=0;exitDy=0;entryX=0.5;entryY=0;entryDx=0;entryDy=0;" edge="1" parent="1" source="Dd1cYbYYxi9G3Xba6974-62" target="Dd1cYbYYxi9G3Xba6974-63">
          <mxGeometry relative="1" as="geometry" />
        </mxCell>
        <mxCell id="Dd1cYbYYxi9G3Xba6974-75" style="edgeStyle=orthogonalEdgeStyle;rounded=0;orthogonalLoop=1;jettySize=auto;html=1;exitX=0.5;exitY=0;exitDx=0;exitDy=0;entryX=0.5;entryY=1;entryDx=0;entryDy=0;" edge="1" parent="1" source="Dd1cYbYYxi9G3Xba6974-62" target="Dd1cYbYYxi9G3Xba6974-68">
          <mxGeometry relative="1" as="geometry" />
        </mxCell>
        <mxCell id="Dd1cYbYYxi9G3Xba6974-62" value="Analytics exporter" style="rounded=1;whiteSpace=wrap;html=1;" vertex="1" parent="1">
          <mxGeometry x="1480" y="180" width="75" height="60" as="geometry" />
        </mxCell>
        <mxCell id="Dd1cYbYYxi9G3Xba6974-63" value="&lt;font color=&quot;#ff3333&quot;&gt;&lt;br&gt;&lt;br&gt;3rd party&lt;br&gt;&lt;/font&gt;" style="shape=actor;whiteSpace=wrap;html=1;" vertex="1" parent="1">
          <mxGeometry x="1497.5" y="360" width="40" height="60" as="geometry" />
        </mxCell>
        <mxCell id="Dd1cYbYYxi9G3Xba6974-66" value="Data Analytics Generator" style="rounded=1;whiteSpace=wrap;html=1;" vertex="1" parent="1">
          <mxGeometry x="1380" y="283.75" width="80" height="52.5" as="geometry" />
        </mxCell>
        <mxCell id="Dd1cYbYYxi9G3Xba6974-67" value="" style="edgeStyle=orthogonalEdgeStyle;rounded=0;orthogonalLoop=1;jettySize=auto;html=1;" edge="1" parent="1" source="Dd1cYbYYxi9G3Xba6974-68" target="Dd1cYbYYxi9G3Xba6974-56">
          <mxGeometry relative="1" as="geometry" />
        </mxCell>
        <mxCell id="Dd1cYbYYxi9G3Xba6974-68" value="Front-end" style="rounded=1;whiteSpace=wrap;html=1;" vertex="1" parent="1">
          <mxGeometry x="1477.5" y="110" width="80" height="35" as="geometry" />
        </mxCell>
      </root>
    </mxGraphModel>
  </diagram>
</mxfile>
